<svg xmlns="http://www.w3.org/2000/svg" viewBox="40 36 590 258" width="590" height="258">
<defs>
  <linearGradient id="up" x1="0" y1="0" x2="0" y2="1">
    <stop offset="0" stop-color="#f7f6f2"/><stop offset="1" stop-color="#d9d7cf"/>
  </linearGradient>
  <pattern id="dots" width="9" height="9" patternUnits="userSpaceOnUse">
    <circle cx="4.5" cy="4.5" r="1.7" fill="#5f5e58" opacity=".75"/>
  </pattern>
  <pattern id="rope" width="14" height="14" patternUnits="userSpaceOnUse" patternTransform="rotate(-24)">
    <rect width="14" height="14" fill="#cdb88c"/>
    <path d="M 0 3 H 14 M 0 10 H 14" stroke="#9a8558" stroke-width="2.2" opacity=".7"/>
  </pattern>
</defs>
<g transform="translate(0,248)">
<clipPath id="c-puma-speedcat-nylon"><path d="M 80,0.0 C 72,-31.7 70,-76.6 82,-121.4 C 90,-139.9 108,-145.2 126,-137.3 C 152,-126.7 178,-110.9 204,-113.5 C 232,-116.2 250,-132.0 274,-137.3 C 290,-139.9 302,-129.4 310,-116.2 C 340,-92.4 390,-84.5 440,-68.6 C 495,-58.1 576,-50.2 600,-31.7 C 610,-21.1 614,-7.9 612,0.0 Z"/></clipPath>
<path d="M 80,0.0 C 72,-31.7 70,-76.6 82,-121.4 C 90,-139.9 108,-145.2 126,-137.3 C 152,-126.7 178,-110.9 204,-113.5 C 232,-116.2 250,-132.0 274,-137.3 C 290,-139.9 302,-129.4 310,-116.2 C 340,-92.4 390,-84.5 440,-68.6 C 495,-58.1 576,-50.2 600,-31.7 C 610,-21.1 614,-7.9 612,0.0 Z" fill="url(#up)" stroke="#0d0d0d" stroke-width="2.2" stroke-linejoin="round"/>
<g clip-path="url(#c-puma-speedcat-nylon)"><path d="M 96,-7.9 C 140,-10.6 190,-52.8 240,-92.4 C 262,-110.9 292,-121.4 330,-110.9 C 300,-95.0 268,-81.8 236,-52.8 C 196,-18.5 140,5.3 96,5.3 Z" fill="#141414"/></g>
<path d="M 128,-134.6 C 152,-124.1 178,-109.6 204,-112.2 C 186,-97.7 150,-103.0 128,-118.8 Z" fill="#1b1b1b"/>
<line x1="308.1" y1="-114.5" x2="298.4" y2="-90.4" stroke="#0d0d0d" stroke-width="7.6" stroke-linecap="round"/>
<line x1="308.1" y1="-114.5" x2="298.4" y2="-90.4" stroke="#cfcdc5" stroke-width="5.2" stroke-linecap="round"/>
<line x1="332.4" y1="-105.9" x2="324.4" y2="-81.2" stroke="#0d0d0d" stroke-width="7.6" stroke-linecap="round"/>
<line x1="332.4" y1="-105.9" x2="324.4" y2="-81.2" stroke="#cfcdc5" stroke-width="5.2" stroke-linecap="round"/>
<line x1="362.0" y1="-97.0" x2="354.9" y2="-72.0" stroke="#0d0d0d" stroke-width="7.6" stroke-linecap="round"/>
<line x1="362.0" y1="-97.0" x2="354.9" y2="-72.0" stroke="#cfcdc5" stroke-width="5.2" stroke-linecap="round"/>
<line x1="395.6" y1="-87.7" x2="388.8" y2="-62.6" stroke="#0d0d0d" stroke-width="7.6" stroke-linecap="round"/>
<line x1="395.6" y1="-87.7" x2="388.8" y2="-62.6" stroke="#cfcdc5" stroke-width="5.2" stroke-linecap="round"/>
<line x1="431.7" y1="-77.7" x2="424.7" y2="-52.7" stroke="#0d0d0d" stroke-width="7.6" stroke-linecap="round"/>
<line x1="431.7" y1="-77.7" x2="424.7" y2="-52.7" stroke="#cfcdc5" stroke-width="5.2" stroke-linecap="round"/>
<path d="M 72,-76.6 C 66,-97.7 68,-126.7 82,-155.8 L 96,-153.1 C 88,-129.4 86,-100.3 90,-76.6 Z" fill="#141414" opacity=".9"/>
<path d="M 84,-3 L 610,-3" stroke="#0d0d0d" stroke-width="1.2" opacity=".35" fill="none"/>
<path d="M 68,0 L 620,0 C 630,4.2 628,11.9 616,14 L 74,14 C 62,14 60,5.6000000000000005 68,0 Z" fill="#e6e4dc" stroke="#0d0d0d" stroke-width="2.2" stroke-linejoin="round"/>
<path d="M 72,14 L 616,14 L 612,22 L 78,22 Z" fill="#6a5a48" stroke="#0d0d0d" stroke-width="2" stroke-linejoin="round"/>
</g>
</svg>
