<svg xmlns="http://www.w3.org/2000/svg" viewBox="40 36 590 258" width="590" height="258">
<defs>
  <linearGradient id="up" x1="0" y1="0" x2="0" y2="1">
    <stop offset="0" stop-color="#f7f6f2"/><stop offset="1" stop-color="#d9d7cf"/>
  </linearGradient>
  <pattern id="dots" width="9" height="9" patternUnits="userSpaceOnUse">
    <circle cx="4.5" cy="4.5" r="1.7" fill="#5f5e58" opacity=".75"/>
  </pattern>
  <pattern id="rope" width="14" height="14" patternUnits="userSpaceOnUse" patternTransform="rotate(-24)">
    <rect width="14" height="14" fill="#cdb88c"/>
    <path d="M 0 3 H 14 M 0 10 H 14" stroke="#9a8558" stroke-width="2.2" opacity=".7"/>
  </pattern>
</defs>
<g transform="translate(0,228)">
<clipPath id="c-song-for-the-mute-adidas-tokyo-w"><path d="M 80,0.0 C 72,-36.0 70,-84.0 84,-134.4 C 92,-153.6 112,-158.4 132,-151.2 C 160,-141.6 188,-117.6 214,-122.4 C 236,-127.2 252,-153.6 280,-165.6 C 296,-172.8 312,-165.6 322,-151.2 C 350,-120.0 392,-105.6 436,-86.4 C 490,-76.8 544,-64.8 570,-40.8 C 582,-28.8 586,-9.6 584,0.0 Z"/></clipPath>
<path d="M 80,0.0 C 72,-36.0 70,-84.0 84,-134.4 C 92,-153.6 112,-158.4 132,-151.2 C 160,-141.6 188,-117.6 214,-122.4 C 236,-127.2 252,-153.6 280,-165.6 C 296,-172.8 312,-165.6 322,-151.2 C 350,-120.0 392,-105.6 436,-86.4 C 490,-76.8 544,-64.8 570,-40.8 C 582,-28.8 586,-9.6 584,0.0 Z" fill="url(#up)" stroke="#0d0d0d" stroke-width="2.2" stroke-linejoin="round"/>
<g clip-path="url(#c-song-for-the-mute-adidas-tokyo-w)"><path d="M 330,-120.0 C 380,-98.4 430,-91.2 470,-79.2 L 470,0.0 L 250,0.0 C 262,-48.0 300,-96.0 330,-120.0 Z" fill="#d0cec6" opacity=".9"/>
<rect x="240" y="-144" width="270" height="156" fill="url(#dots)"/>
<line x1="354.9" y1="-112.4" x2="302.9" y2="-3" stroke="#141414" stroke-width="9.5"/>
<line x1="380.1" y1="-98.8" x2="328.1" y2="-3" stroke="#141414" stroke-width="9.5"/>
<line x1="407.4" y1="-86.6" x2="355.4" y2="-3" stroke="#141414" stroke-width="9.5"/></g>
<path d="M 136,-148.8 C 166,-134.4 190,-120.0 214,-121.2 C 196,-105.6 160,-110.4 136,-127.2 Z" fill="#1b1b1b"/>
<line x1="331.8" y1="-150.4" x2="313.5" y2="-131.9" stroke="#0d0d0d" stroke-width="7.6" stroke-linecap="round"/>
<line x1="331.8" y1="-150.4" x2="313.5" y2="-131.9" stroke="#cfcdc5" stroke-width="5.2" stroke-linecap="round"/>
<line x1="347.8" y1="-136.9" x2="332.6" y2="-115.8" stroke="#0d0d0d" stroke-width="7.6" stroke-linecap="round"/>
<line x1="347.8" y1="-136.9" x2="332.6" y2="-115.8" stroke="#cfcdc5" stroke-width="5.2" stroke-linecap="round"/>
<line x1="366.1" y1="-125.4" x2="353.4" y2="-102.7" stroke="#0d0d0d" stroke-width="7.6" stroke-linecap="round"/>
<line x1="366.1" y1="-125.4" x2="353.4" y2="-102.7" stroke="#cfcdc5" stroke-width="5.2" stroke-linecap="round"/>
<line x1="386.2" y1="-115.1" x2="375.2" y2="-91.5" stroke="#0d0d0d" stroke-width="7.6" stroke-linecap="round"/>
<line x1="386.2" y1="-115.1" x2="375.2" y2="-91.5" stroke="#cfcdc5" stroke-width="5.2" stroke-linecap="round"/>
<line x1="407.9" y1="-105.5" x2="397.7" y2="-81.5" stroke="#0d0d0d" stroke-width="7.6" stroke-linecap="round"/>
<line x1="407.9" y1="-105.5" x2="397.7" y2="-81.5" stroke="#cfcdc5" stroke-width="5.2" stroke-linecap="round"/>
<line x1="430.7" y1="-95.8" x2="420.4" y2="-71.9" stroke="#0d0d0d" stroke-width="7.6" stroke-linecap="round"/>
<line x1="430.7" y1="-95.8" x2="420.4" y2="-71.9" stroke="#cfcdc5" stroke-width="5.2" stroke-linecap="round"/>
<path d="M 72,-69.6 C 66,-88.8 68,-115.2 82,-141.6 L 96,-139.2 C 88,-117.6 86,-91.2 90,-69.6 Z" fill="#141414" opacity=".9"/>
<path d="M 84,-3 L 582,-3" stroke="#0d0d0d" stroke-width="1.2" opacity=".35" fill="none"/>
<path d="M 68,-24 L 592,0 C 602,9.6 600,27.2 588,32 L 74,32 C 62,32 60,12.8 68,-24 Z" fill="#f0efea" stroke="#0d0d0d" stroke-width="2.2" stroke-linejoin="round"/>
<path d="M 72,32 L 588,32 L 584,42 L 78,42 Z" fill="#141414" stroke="#0d0d0d" stroke-width="2" stroke-linejoin="round"/>
</g>
</svg>
